<?xml version="1.0" encoding="UTF-8"?>
<!DOCTYPE svg PUBLIC "-//W3C//DTD SVG 1.1//EN" "http://www.w3.org/Graphics/SVG/1.1/DTD/svg11.dtd">
<!-- Creator: CorelDRAW 2019 (64-Bit) -->
<svg xmlns="http://www.w3.org/2000/svg" xml:space="preserve" width="441px" height="312px" version="1.1" style="shape-rendering:geometricPrecision; text-rendering:geometricPrecision; image-rendering:optimizeQuality; fill-rule:evenodd; clip-rule:evenodd"
viewBox="0 0 441 312.13"
 xmlns:xlink="http://www.w3.org/1999/xlink"
 xmlns:xodm="http://www.corel.com/coreldraw/odm/2003">
 <defs>
  <style type="text/css">
   <![CDATA[
    .fil0 {fill:#8C1515;fill-rule:nonzero}
    .fil1 {fill:white;fill-rule:nonzero}
   ]]>
  </style>
 </defs>
 <g id="Слой_x0020_1">
  <metadata id="CorelCorpID_0Corel-Layer"/>
  <path class="fil0" d="M50.64 82.14l-11.37 11.14 0 29.94 9.86 10.12 4.54 0c-0.11,0.29 -0.27,0.75 0.06,1.22 0.34,0.5 0.93,0.5 1.16,0.5 0.24,0 0.61,-0.04 1.22,-0.11 0,0 0.22,0.19 -0.51,0.46 -0.59,0.2 -1.11,0.55 -1.28,1.16 0,0.03 0,0.09 -0.02,0.14l-15.03 0 0 15.31 11.37 11.2 29.86 0 11.37 -11.16 0 -28.73 -9.85 -10.09 -8.37 0c-0.38,-0.21 -0.76,-0.44 -1.09,-0.68l-0.12 -0.08 -0.05 0c-0.19,-0.14 -0.41,-0.26 -0.59,-0.44 -0.18,-0.17 -0.33,-0.31 -0.46,-0.45l-0.03 -0.02c-0.22,-0.23 -0.44,-0.46 -0.56,-0.68 1.32,0.38 2.74,0.46 3.42,0.51l0.06 0c0.03,0 0.09,0 0.14,0l0.06 0c0.17,0 0.29,0.03 0.35,0.06 0.11,0.04 0.17,0.06 0.23,0.11l0.36 0.13c0.11,0.03 0.17,0.03 0.28,0.03 0.53,0 0.98,-0.3 1.21,-0.79 0.07,-0.17 0.2,-0.49 0.09,-0.93l14.92 0 0 -16.7 -11.39 -11.17 -29.84 0zm0 0z"/>
  <path class="fil1" d="M90.5 93.92l-10.55 -10.39 -28.79 0 -10.54 10.34 0 28.8 9.08 9.3 5.84 0c-0.65,0.58 -0.86,1.22 -0.94,1.51 -0.24,0.65 -0.47,0.85 1.57,0.55 0.65,-0.08 1.82,-0.53 2.4,-0.89 0.54,-0.35 1.59,-0.06 1.53,0.72 -0.48,1.26 -1.81,2.02 -3.05,2.19 -2.86,0.35 -1.61,1.42 -1.61,1.42 0.33,0.23 0.51,0.41 0.68,0.62l-15.5 0 0 13.34 10.54 10.36 28.79 0 10.55 -10.36 0 -27.51 -9.07 -9.26 -7.34 0c-0.59,-0.4 -1.36,-0.81 -2.11,-1.28 -0.24,-0.17 -0.53,-0.35 -0.77,-0.58 -0.23,-0.18 -0.4,-0.38 -0.57,-0.53 -0.6,-0.68 -1.11,-1.38 -1.23,-1.69 -0.24,-0.59 -0.21,-1.33 0.35,-1.03 1.35,0.8 3.58,0.92 4.41,0.96 0.09,0 0.76,0.07 0.91,0.13 0.17,0.07 0.44,0.19 0.44,0.19 0.31,0.14 0.95,-0.32 0.23,-1.17 -0.21,-0.3 -0.47,-0.64 -0.8,-1l15.57 0 -0.02 -14.74zm0 0z"/>
  <path class="fil0" d="M51.74 84.92l-9.73 9.55 0 27.61 8.27 8.5 7.77 0c1.34,-0.59 1.63,-0.53 1.98,-1.29 0.07,-0.13 0.11,-0.46 0.13,-0.81 0.05,-0.08 0.22,-1.07 -0.3,-0.84 -0.82,0.43 -2.48,-0.69 -3.75,-0.03 -1.27,0.67 -0.34,-0.85 -0.17,-1.13 0,0 0.65,-0.88 1.67,-1.47 0.03,-0.04 0.08,-0.04 0.09,-0.07 0.11,-0.07 0.21,-0.1 0.29,-0.16 0.76,-0.36 2.97,-1.85 3.36,-2.28 0.24,-0.27 0.66,-0.88 0.66,-1.23 0.06,-0.29 0.13,-0.75 -0.17,-0.91 -0.41,-0.26 -0.75,0.27 -1.4,0.56 -0.66,0.29 -1.16,0.43 -1.75,0.43 -0.55,0.03 -1.11,-0.2 -1.45,-0.14 -0.31,0.06 -0.53,-0.18 0.11,-0.81 0.29,-0.3 0.4,-0.41 0.52,-0.5 1.47,-0.96 2.8,-0.96 3.51,-2.64 0,0 0.57,-1.52 -0.53,-0.85 -0.58,0.36 -0.94,0.85 -2.65,0.85 -1.73,0 -2.39,0.81 -2.7,1.19 0,0 -1.18,1.65 -0.89,-0.67 0.3,-2.3 0.76,-3.47 1.86,-4.37 0.94,-0.76 3.25,-1.82 4.09,-2.96 0.44,-0.44 1.51,-1.69 0.88,-2.71 -0.25,-0.43 -0.9,0.69 -1.58,0.86 -0.75,0.19 -1.72,0.46 -2.45,0.3 -0.93,-0.2 -1.52,0.16 -1.82,0.33 -0.35,0.17 -0.99,-0.33 -0.22,-1.26 1.05,-1.22 3.61,-2.81 5.31,-3.72 0.23,-0.09 0.84,-0.37 1.37,-0.69 0,0 0.02,0 0.02,0 0.13,-0.06 0.33,-0.16 0.42,-0.33 0.38,-0.34 0.64,-0.66 0.57,-1.02 -0.06,-0.33 -0.23,-0.44 -0.75,-0.5 -0.41,-0.02 -1.08,0.42 -1.64,0.39 -0.87,-0.06 -2.15,0.14 -1.71,-0.5 0.38,-0.55 1.01,-0.9 1.2,-1.01 0.38,-0.16 0.84,-0.36 1.51,-0.7 1.1,-0.47 0.97,-1.75 0.53,-1.76 -0.65,-0.07 -2.42,0.48 -1.18,-0.93 0,0 0.59,-0.6 1.18,-0.99 0.46,-0.28 0.86,-0.4 1.37,-0.57 0.29,-0.09 1.05,-0.78 -0.76,-0.84 0,0 -1.03,0.02 -0.85,-0.44 0.18,-0.3 1.08,-0.88 1.08,-0.88 0,0 0.71,-0.49 1.01,-0.79 0.3,-0.28 0.48,-0.51 0.46,-0.74 0,-0.25 -0.74,-0.61 -1.03,-1 -0.23,-0.28 -0.02,-0.37 0.11,-0.41 0.06,0 0.12,-0.05 0.23,-0.05 0.71,0 0.94,-0.7 1.38,-2.65 0.12,-0.56 0.12,-0.69 0.32,-0.69 0.04,0 0.04,0 0.04,0 0,0 0.19,0.99 0.46,2.06 0.23,0.61 0.47,0.87 0.93,0.87 0.09,0 0.15,0 0.23,0.04 0.13,0.02 0.3,0.13 0.09,0.37 -0.17,0.24 -0.66,0.58 -0.7,0.77 -0.12,0.62 0.44,0.85 1.03,0.86 0.82,0.06 0.49,0.57 -0.41,1.22 -0.85,0.64 1.35,2.01 1.35,2.01 1.27,0.96 0.36,1.22 0.11,1.34 -0.27,0.15 -0.94,0.57 -0.27,0.84 0.73,0.26 1.67,1.25 1.67,1.25 1.26,1.45 -0.52,0.87 -1.17,0.93 -0.44,0.02 -0.59,1.28 0.53,1.77 1.68,0.76 2.04,0.88 2.62,1.32 1.12,0.83 0.53,1.53 -0.86,1.29 0,0 -0.88,-0.23 -1.51,-0.11 -0.38,0.07 -0.66,0.18 -0.82,0.27 -0.08,0.14 -0.31,0.72 1.62,1.31 0.93,0.29 2.04,0.99 3.04,1.8l15.71 0 0 -12.8 -9.82 -9.64 -27.65 0zm23.71 31.09c0.44,0.76 0.73,1.76 0.91,3.16 0,0.87 -1.14,0.47 -1.52,0.24 -0.24,-0.18 -0.58,-0.35 -1.05,-0.47 -0.82,-0.18 -2.81,-1.1 -3.33,-1.25 -0.56,-0.2 -0.94,0.2 -1.03,0.37 -0.13,0.25 0.16,0.77 0.16,0.77 0.81,1.8 2.21,1.69 3.79,2.81 2.16,1.55 1.01,1.87 0.56,1.64 -0.44,-0.23 -1.2,-0.09 -1.2,-0.09 -1.73,0.49 -2.26,-0.26 -3.27,-0.52 -1.03,-0.27 -0.19,0.99 0.19,1.42 0.39,0.46 2.61,1.93 3.36,2.27 1.68,0.78 2.52,2.04 3.05,3.64 0.5,1.51 -0.03,1.21 -0.42,0.99 -0.4,-0.18 -0.53,-0.59 -1.51,-0.55 -0.99,0.03 -1.54,-0.06 -2.28,-0.59 -0.18,-0.14 -0.33,-0.29 -0.46,-0.46 0,0 0,0 -0.01,0 -0.7,-0.53 -0.58,1.22 -0.41,1.48 0.49,0.99 0.82,0.58 3.63,2.1 1.37,0.75 1.66,1.69 1.81,2.09 0.23,0.65 0.46,0.84 -1.58,0.55 -0.64,-0.09 -1.82,-0.49 -2.39,-0.89 -0.53,-0.36 -1.59,-0.06 -1.5,0.72 0.5,1.27 1.79,2.03 3.06,2.19 1.07,0.13 1.58,0.36 1.76,0.61 0.59,0.69 -0.49,1.68 -0.49,1.68 -0.56,0.64 0.03,1.4 0.47,1.63 0.66,0.31 1.93,1.11 2.36,2.21 2.25,5.73 0.06,4.07 -0.99,3.41 -1.05,-0.65 -3.05,-2.34 -4.9,-2.21 -1.82,0.14 -2.41,0.23 -3.55,-0.61 -1.07,-0.86 -0.96,0.52 -0.96,0.52l0 6.92c0.06,1.56 0.35,3.03 1.57,4.27 1.01,1.03 1.76,0.87 3.17,2.57 0.67,0.81 2.8,1.67 4.2,1.69l2.74 0 9.73 -9.58 0 -26.36 -8.29 -8.47 -5.38 0.1zm-33.44 23.45l0 11.37 9.73 9.6 3.1 0c2.97,-0.13 4.06,-2.45 4.94,-3.86 0.66,-1.06 1.87,-1.98 2.62,-2.74 0.79,-0.82 0.96,-2.68 0.96,-4.68l0 -4.19 0 0.05 0 -3.63c0,-0.42 -0.49,-0.47 -1.54,0.69 -1.05,1.14 -2.86,1.05 -3.89,1.14 -1,0.11 -4.01,1.66 -4.82,2.79 -0.53,0.69 -1.29,0.12 -0.96,-1.28 0.14,-0.61 0.41,-1.42 0.82,-2.51 0.59,-1.53 2.8,-2.41 2.8,-2.41 0,0 0.23,-0.11 0.41,-0.29l-14.17 -0.05zm0 0z"/>
  <path class="fil0" d="M126.94 134.14l-1.52 7.5c-1.23,-0.78 -2.43,-1.36 -3.62,-1.77 -1.17,-0.44 -2.34,-0.67 -3.52,-0.67 -2.99,0 -5.42,1.02 -7.32,3.03 -1.9,1.98 -2.85,4.54 -2.85,7.68 0,2.01 0.58,3.59 1.77,4.71 1.17,1.08 2.86,1.6 5.03,1.6 1.39,0 2.8,-0.19 4.2,-0.58 1.4,-0.46 2.72,-1.1 3.96,-1.95l-1.42 7.51c-1.52,0.5 -3.07,0.88 -4.64,1.17 -1.5,0.28 -3.06,0.43 -4.62,0.43 -4.49,0 -7.96,-1.02 -10.42,-3.03 -2.42,-2.03 -3.62,-4.92 -3.62,-8.69 0,-2.36 0.46,-4.63 1.36,-6.82 0.88,-2.2 2.18,-4.18 3.86,-5.99 1.85,-1.89 3.97,-3.31 6.39,-4.21 2.4,-0.96 5.17,-1.43 8.32,-1.43 1.45,0 2.88,0.14 4.28,0.41 1.46,0.24 2.91,0.6 4.38,1.1zm0 0z"/>
  <path class="fil0" d="M161.28 144.5l-3.37 17.54 -9.15 0 2.86 -15.01c0.21,-0.94 0.37,-1.77 0.5,-2.44 0.1,-0.67 0.17,-1.2 0.17,-1.6 0,-1.11 -0.32,-1.96 -0.93,-2.53 -0.63,-0.61 -1.49,-0.93 -2.6,-0.93 -1.92,0 -3.53,0.75 -4.88,2.2 -1.34,1.47 -2.31,3.52 -2.86,6.15l-2.68 14.16 -9.25 0 7.73 -39.95 9.25 0 -3.03 15.43c1.69,-1.69 3.36,-2.91 5.05,-3.72 1.72,-0.77 3.54,-1.17 5.46,-1.17 2.63,0 4.64,0.71 6.05,2.1 1.45,1.36 2.19,3.29 2.19,5.82 0,0.5 -0.07,1.09 -0.18,1.77 -0.06,0.67 -0.17,1.4 -0.33,2.18zm0 0z"/>
  <path class="fil0" d="M184.46 139.2c-2.34,0 -4.32,1.08 -5.87,3.2 -1.52,2.15 -2.28,4.89 -2.28,8.26 0,1.81 0.38,3.18 1.18,4.13 0.84,0.97 2.06,1.43 3.7,1.43 2.36,0 4.29,-1.05 5.8,-3.2 1.56,-2.2 2.35,-4.97 2.35,-8.34 0,-1.8 -0.41,-3.15 -1.26,-4.05 -0.84,-0.95 -2.06,-1.43 -3.62,-1.43zm0.76 -6.57c4.24,0 7.59,1.09 10.01,3.28 2.46,2.15 3.69,5.1 3.69,8.85 0,2.15 -0.39,4.25 -1.17,6.32 -0.74,2.03 -1.84,3.87 -3.28,5.56 -1.81,2.03 -3.87,3.58 -6.22,4.64 -2.36,1 -4.99,1.52 -7.9,1.52 -4.27,0 -7.6,-1.1 -10,-3.29 -2.42,-2.19 -3.62,-5.14 -3.62,-8.85 0,-2.2 0.38,-4.3 1.18,-6.33 0.78,-2.06 1.89,-3.97 3.36,-5.73 1.68,-1.95 3.7,-3.44 6.06,-4.46 2.39,-1.01 5.03,-1.51 7.89,-1.51zm0 0z"/>
  <path class="fil0" d="M220.48 139.2c-2.36,0 -4.34,1.08 -5.89,3.2 -1.52,2.15 -2.28,4.89 -2.28,8.26 0,1.81 0.38,3.18 1.19,4.13 0.84,0.97 2.05,1.43 3.69,1.43 2.36,0 4.29,-1.05 5.8,-3.2 1.55,-2.2 2.36,-4.97 2.36,-8.34 0,-1.8 -0.43,-3.15 -1.27,-4.05 -0.83,-0.95 -2.05,-1.43 -3.6,-1.43zm0.75 -6.57c4.24,0 7.58,1.09 10,3.28 2.46,2.15 3.7,5.1 3.7,8.85 0,2.15 -0.4,4.25 -1.18,6.32 -0.74,2.03 -1.83,3.87 -3.28,5.56 -1.81,2.03 -3.86,3.58 -6.22,4.64 -2.34,1 -5,1.52 -7.89,1.52 -4.27,0 -7.62,-1.1 -10.01,-3.29 -2.42,-2.19 -3.62,-5.14 -3.62,-8.85 0,-2.2 0.38,-4.3 1.19,-6.33 0.77,-2.06 1.88,-3.97 3.36,-5.73 1.67,-1.95 3.69,-3.44 6.05,-4.46 2.39,-1.01 5.04,-1.51 7.9,-1.51zm0 0z"/>
  <path class="fil0" d="M246.14 122.09l9.25 0 -7.74 39.95 -9.25 0 7.74 -39.95zm0 0z"/>
  <path class="fil0" d="M271.6 123.7l11.01 0 8.82 26.29 3.45 -17.53c0.67,-3.41 1.89,-5.73 3.7,-6.91 1.79,-1.22 5.23,-1.85 10.34,-1.85l-1.1 5.64c-1.47,0 -2.39,0.29 -2.77,0.84 -0.39,0.5 -0.68,1.26 -0.83,2.28l-5.72 29.58 -11.01 0 -8.83 -26.3 -3.44 17.53c-0.64,3.44 -1.86,5.78 -3.7,7 -1.81,1.17 -5.26,1.77 -10.34,1.77l1.09 -5.65c1.45,0 2.38,-0.25 2.77,-0.75 0.38,-0.55 0.67,-1.36 0.84,-2.37l5.72 -29.57zm38.99 13.39c1.79,-1.69 3.96,-2.53 6.48,-2.53 2.57,0 4.3,0.72 5.21,2.11 0.95,1.41 1.43,2.95 1.43,4.63 0,0.81 -0.09,1.67 -0.25,2.62 -0.57,2.93 -1.75,5.23 -3.53,6.9 -1.81,1.69 -3.96,2.53 -6.48,2.53 -2.51,0 -4.26,-0.7 -5.2,-2.1 -0.97,-1.39 -1.43,-2.95 -1.43,-4.63 0,-0.78 0.08,-1.69 0.24,-2.7 0.61,-2.87 1.8,-5.15 3.53,-6.83zm5.72 1.35c-1.01,0 -1.89,0.48 -2.6,1.43 -0.67,0.97 -1.19,2.32 -1.52,4.05 -0.17,0.9 -0.25,1.72 -0.25,2.44 0,0.67 0.11,1.4 0.34,2.1 0.27,0.69 0.92,1.02 1.93,1.02 2.02,0 3.39,-1.86 4.12,-5.56 0.17,-0.84 0.26,-1.6 0.26,-2.28 0,-0.67 -0.15,-1.36 -0.43,-2.11 -0.23,-0.71 -0.83,-1.09 -1.85,-1.09zm-11.68 18.46l16.3 0 -1 5.14 -16.31 0 1.01 -5.14zm0 0z"/>
  <path class="fil0" d="M329.78 155.21l8.74 0 4.79 -24.77 -9.33 1.85 1.26 -6.74 9.25 -1.85 9.41 0 -6.05 31.51 8.65 0 -1.34 6.83 -26.72 0 1.34 -6.83zm0 0z"/>
  <path class="fil0" d="M381.63 143.08c-1.98,0 -3.58,0.81 -4.79,2.44 -1.25,1.64 -1.86,3.7 -1.86,6.23 0,1.52 0.37,2.7 1.1,3.54 0.77,0.85 1.84,1.26 3.19,1.26 1.95,0 3.55,-0.77 4.79,-2.35 1.28,-1.56 1.93,-3.56 1.93,-5.98 0,-1.63 -0.39,-2.9 -1.17,-3.8 -0.74,-0.88 -1.81,-1.34 -3.19,-1.34zm15.62 -18.37l-1.42 7.07c-1.47,-0.72 -2.9,-1.28 -4.29,-1.68 -1.35,-0.38 -2.73,-0.59 -4.12,-0.59 -3.15,0 -5.71,0.88 -7.74,2.6 -1.96,1.69 -3.14,4.1 -3.52,7.18 1.35,-0.85 2.7,-1.46 4.12,-1.86 1.38,-0.44 2.87,-0.67 4.45,-0.67 3.13,0 5.72,0.93 7.73,2.77 2.02,1.86 3.04,4.27 3.04,7.17 0,4.72 -1.57,8.59 -4.64,11.62 -3.09,3 -7.06,4.48 -11.92,4.48 -4.38,0 -7.79,-1.22 -10.18,-3.72 -2.35,-2.45 -3.53,-5.94 -3.53,-10.45 0,-3.47 0.52,-6.78 1.6,-9.94 1.05,-3.2 2.54,-5.94 4.46,-8.25 2.05,-2.47 4.47,-4.33 7.22,-5.57 2.8,-1.22 5.93,-1.85 9.42,-1.85 1.61,0 3.19,0.15 4.71,0.42 1.5,0.29 3.04,0.72 4.61,1.27zm0 0z"/>
  <path class="fil0" d="M18.22 172.79l-0.42 2.28c-0.57,-0.27 -1.16,-0.47 -1.77,-0.59 -0.56,-0.17 -1.09,-0.26 -1.59,-0.26 -0.57,0 -1.01,0.09 -1.34,0.26 -0.29,0.17 -0.43,0.4 -0.43,0.67 0,0.17 0.09,0.32 0.26,0.42 0.17,0.07 0.5,0.15 1,0.25l0.51 0.09c1.21,0.29 2.06,0.63 2.52,1.01 0.5,0.41 0.76,0.93 0.76,1.6 0,1.08 -0.42,1.92 -1.26,2.53 -0.84,0.63 -2.02,0.93 -3.53,0.93 -0.64,0 -1.26,-0.07 -1.93,-0.17 -0.67,-0.11 -1.35,-0.26 -2.02,-0.43l0.42 -2.36c0.55,0.35 1.11,0.6 1.68,0.76 0.6,0.17 1.26,0.26 1.93,0.26 0.61,0 1.05,-0.09 1.35,-0.26 0.33,-0.16 0.5,-0.38 0.5,-0.67 0,-0.17 -0.09,-0.29 -0.26,-0.42 -0.16,-0.11 -0.54,-0.22 -1.09,-0.34l-0.58 -0.08c-1.02,-0.21 -1.75,-0.55 -2.19,-1.02 -0.46,-0.44 -0.67,-1.02 -0.67,-1.76 0,-1.01 0.35,-1.79 1.09,-2.37 0.78,-0.54 1.89,-0.83 3.37,-0.83 0.6,0 1.21,0.06 1.84,0.16 0.62,0.06 1.23,0.17 1.85,0.34zm0 0z"/>
  <path class="fil0" d="M29.38 177.42l-0.08 0.52 -6.89 0c0,0.06 0,0.12 0,0.16 0,0.07 0,0.08 0,0.08 0,0.64 0.16,1.1 0.5,1.44 0.33,0.3 0.86,0.42 1.6,0.42 0.6,0 1.26,-0.09 1.93,-0.26 0.71,-0.21 1.44,-0.52 2.19,-0.93l-0.43 2.37c-0.73,0.24 -1.46,0.4 -2.18,0.51 -0.68,0.17 -1.39,0.25 -2.11,0.25 -1.46,0 -2.58,-0.34 -3.36,-1.01 -0.79,-0.67 -1.17,-1.6 -1.17,-2.79 0,-0.71 0.11,-1.39 0.33,-2.01 0.28,-0.68 0.67,-1.29 1.18,-1.86 0.54,-0.67 1.21,-1.19 2.02,-1.52 0.77,-0.34 1.64,-0.5 2.6,-0.5 1.23,0 2.22,0.33 2.95,1 0.71,0.68 1.09,1.59 1.09,2.7 0,0.24 -0.04,0.47 -0.09,0.68 0,0.23 -0.04,0.49 -0.08,0.75zm-2.78 -1.34c0,-0.05 0,-0.11 0,-0.17 0,-0.11 0,-0.19 0,-0.26 0,-0.44 -0.14,-0.77 -0.41,-1 -0.24,-0.28 -0.57,-0.43 -1.01,-0.43 -0.57,0 -1.07,0.17 -1.51,0.52 -0.4,0.29 -0.67,0.73 -0.84,1.34l3.77 0zm0 0z"/>
  <path class="fil0" d="M33.86 180.38l-0.92 4.89 -2.94 0 2.43 -12.73 3.03 0 -0.34 1.35c0.45,-0.55 0.93,-0.95 1.43,-1.18 0.51,-0.27 1.04,-0.42 1.6,-0.42 1.05,0 1.87,0.33 2.43,1 0.61,0.64 0.93,1.52 0.93,2.7 0,0.68 -0.12,1.35 -0.33,2.02 -0.17,0.68 -0.46,1.31 -0.84,1.86 -0.5,0.67 -1.08,1.22 -1.69,1.6 -0.62,0.34 -1.3,0.51 -2.02,0.51 -0.62,0 -1.15,-0.13 -1.59,-0.34 -0.46,-0.27 -0.84,-0.7 -1.18,-1.26zm3.12 -5.99c-0.74,0 -1.35,0.38 -1.86,1.1 -0.45,0.68 -0.67,1.58 -0.67,2.69 0,0.51 0.11,0.91 0.34,1.19 0.27,0.29 0.67,0.41 1.17,0.41 0.72,0 1.31,-0.33 1.77,-1 0.5,-0.68 0.76,-1.54 0.76,-2.61 0,-0.56 -0.16,-0.98 -0.43,-1.28 -0.23,-0.32 -0.58,-0.5 -1.08,-0.5zm0 0z"/>
  <path class="fil0" d="M47.72 177.6c-0.74,0 -1.31,0.12 -1.69,0.34 -0.39,0.23 -0.59,0.56 -0.59,1 0,0.34 0.11,0.63 0.35,0.84 0.2,0.17 0.52,0.26 0.91,0.26 0.61,0 1.13,-0.17 1.52,-0.5 0.38,-0.38 0.67,-0.93 0.84,-1.6l0.09 -0.34 -1.43 0zm4.53 -1.1l-1 5.23 -2.95 0 0.26 -1.35c-0.46,0.56 -0.97,0.99 -1.51,1.26 -0.57,0.21 -1.17,0.34 -1.77,0.34 -0.84,0 -1.56,-0.23 -2.1,-0.68 -0.51,-0.44 -0.75,-1.05 -0.75,-1.85 0,-1.18 0.44,-2.06 1.34,-2.7 0.94,-0.61 2.26,-0.93 3.95,-0.93l1.76 0 0 -0.25c0.05,-0.04 0.08,-0.08 0.08,-0.08 0,-0.05 0,-0.11 0,-0.17 0,-0.34 -0.21,-0.58 -0.58,-0.75 -0.33,-0.22 -0.85,-0.35 -1.52,-0.35 -0.56,0 -1.15,0.09 -1.76,0.26 -0.57,0.12 -1.1,0.29 -1.6,0.5l0.43 -2.19c0.6,-0.17 1.21,-0.28 1.84,-0.34 0.68,-0.1 1.35,-0.16 2.02,-0.16 1.38,0 2.39,0.25 3.03,0.76 0.67,0.46 1,1.15 1,2.1 0,0.17 -0.04,0.38 -0.08,0.59 0,0.23 -0.04,0.49 -0.09,0.76zm0 0z"/>
  <path class="fil0" d="M62.15 174.98c-0.23,-0.1 -0.49,-0.18 -0.76,-0.24 -0.23,-0.05 -0.49,-0.09 -0.76,-0.09 -0.73,0 -1.34,0.24 -1.86,0.76 -0.5,0.46 -0.83,1.16 -1,2.1l-0.84 4.22 -2.94 0 1.77 -9.19 3.01 0 -0.33 1.51c0.38,-0.54 0.86,-0.96 1.44,-1.26 0.61,-0.34 1.25,-0.5 1.93,-0.5 0.11,0 0.2,0 0.34,0 0.16,0 0.33,0.04 0.5,0.07l-0.5 2.62zm0 0z"/>
  <path class="fil0" d="M67.31 177.6c-0.74,0 -1.31,0.12 -1.69,0.34 -0.39,0.23 -0.59,0.56 -0.59,1 0,0.34 0.11,0.63 0.34,0.84 0.21,0.17 0.53,0.26 0.92,0.26 0.61,0 1.13,-0.17 1.52,-0.5 0.37,-0.38 0.67,-0.93 0.84,-1.6l0.08 -0.34 -1.42 0zm4.53 -1.1l-1 5.23 -2.95 0 0.26 -1.35c-0.47,0.56 -0.97,0.99 -1.52,1.26 -0.57,0.21 -1.16,0.34 -1.77,0.34 -0.83,0 -1.55,-0.23 -2.1,-0.68 -0.5,-0.44 -0.75,-1.05 -0.75,-1.85 0,-1.18 0.44,-2.06 1.35,-2.7 0.94,-0.61 2.26,-0.93 3.95,-0.93l1.75 0 0 -0.25c0.05,-0.04 0.09,-0.08 0.09,-0.08 0,-0.05 0,-0.11 0,-0.17 0,-0.34 -0.21,-0.58 -0.59,-0.75 -0.33,-0.22 -0.84,-0.35 -1.51,-0.35 -0.56,0 -1.15,0.09 -1.76,0.26 -0.58,0.12 -1.1,0.29 -1.6,0.5l0.43 -2.19c0.59,-0.17 1.2,-0.28 1.84,-0.34 0.67,-0.1 1.35,-0.16 2.02,-0.16 1.38,0 2.39,0.25 3.03,0.76 0.67,0.46 1,1.15 1,2.1 0,0.17 -0.04,0.38 -0.09,0.59 0,0.23 -0.03,0.49 -0.08,0.76zm0 0z"/>
  <path class="fil0" d="M79.12 169.92l-0.5 2.62 3.03 0 -0.43 2.11 -3.02 0 -0.75 3.87c0,0.06 -0.05,0.15 -0.09,0.26 0,0.06 0,0.12 0,0.16 0,0.23 0.09,0.4 0.25,0.51 0.17,0.12 0.45,0.17 0.84,0.17l1.51 0 -0.41 2.11 -2.45 0c-0.9,0 -1.57,-0.18 -2.01,-0.51 -0.47,-0.37 -0.67,-0.95 -0.67,-1.68 0,-0.17 0,-0.34 0,-0.52 0,-0.17 0.02,-0.33 0.08,-0.5l0.76 -3.87 -1.43 0 0.33 -2.11 1.51 0 0.52 -2.62 2.93 0zm0 0z"/>
  <path class="fil0" d="M91.68 177.42l-0.08 0.52 -6.89 0c0,0.06 0,0.12 0,0.16 0,0.07 0,0.08 0,0.08 0,0.64 0.17,1.1 0.5,1.44 0.34,0.3 0.86,0.42 1.6,0.42 0.61,0 1.26,-0.09 1.93,-0.26 0.71,-0.21 1.45,-0.52 2.19,-0.93l-0.43 2.37c-0.74,0.24 -1.47,0.4 -2.18,0.51 -0.67,0.17 -1.39,0.25 -2.1,0.25 -1.48,0 -2.59,-0.34 -3.36,-1.01 -0.81,-0.67 -1.19,-1.6 -1.19,-2.79 0,-0.71 0.11,-1.39 0.35,-2.01 0.27,-0.68 0.67,-1.29 1.17,-1.86 0.55,-0.67 1.22,-1.19 2.02,-1.52 0.78,-0.34 1.63,-0.5 2.6,-0.5 1.22,0 2.21,0.33 2.94,1 0.72,0.68 1.1,1.59 1.1,2.7 0,0.24 -0.05,0.47 -0.08,0.68 0,0.23 -0.05,0.49 -0.09,0.75zm-2.77 -1.34c0,-0.05 0,-0.11 0,-0.17 0,-0.11 0,-0.19 0,-0.26 0,-0.44 -0.15,-0.77 -0.43,-1 -0.23,-0.28 -0.56,-0.43 -1,-0.43 -0.58,0 -1.08,0.17 -1.52,0.52 -0.4,0.29 -0.67,0.73 -0.84,1.34l3.79 0zm0 0z"/>
  <path class="fil0" d="M97.58 179.78c0.79,0 1.4,-0.33 1.86,-1 0.5,-0.68 0.76,-1.56 0.76,-2.7 0,-0.51 -0.15,-0.89 -0.43,-1.19 -0.29,-0.32 -0.65,-0.5 -1.09,-0.5 -0.73,0 -1.34,0.38 -1.84,1.1 -0.51,0.68 -0.76,1.56 -0.76,2.61 0,0.57 0.12,0.99 0.42,1.27 0.27,0.29 0.63,0.41 1.08,0.41zm3.12 -5.89l1.01 -4.97 2.94 0 -2.52 12.81 -2.95 0 0.26 -1.35c-0.46,0.56 -0.93,0.99 -1.43,1.26 -0.46,0.21 -0.99,0.34 -1.6,0.34 -1,0 -1.82,-0.34 -2.43,-1.01 -0.64,-0.67 -0.93,-1.57 -0.93,-2.7 0,-0.67 0.11,-1.35 0.34,-2.02 0.21,-0.68 0.53,-1.29 0.92,-1.86 0.51,-0.67 1.05,-1.18 1.69,-1.51 0.61,-0.38 1.28,-0.59 2.01,-0.59 0.61,0 1.14,0.15 1.6,0.42 0.44,0.23 0.8,0.63 1.09,1.18zm0 0z"/>
  <path class="fil0" d="M119.71 172.79l-0.41 2.28c-0.56,-0.27 -1.15,-0.47 -1.76,-0.59 -0.58,-0.17 -1.1,-0.26 -1.6,-0.26 -0.56,0 -1.02,0.09 -1.35,0.26 -0.29,0.17 -0.41,0.4 -0.41,0.67 0,0.17 0.07,0.32 0.24,0.42 0.17,0.07 0.5,0.15 1.02,0.25l0.5 0.09c1.22,0.29 2.05,0.63 2.52,1.01 0.51,0.41 0.75,0.93 0.75,1.6 0,1.08 -0.41,1.92 -1.26,2.53 -0.84,0.63 -2.01,0.93 -3.53,0.93 -0.62,0 -1.26,-0.07 -1.93,-0.17 -0.67,-0.11 -1.34,-0.26 -2.01,-0.43l0.41 -2.36c0.55,0.35 1.11,0.6 1.69,0.76 0.61,0.17 1.26,0.26 1.93,0.26 0.61,0 1.05,-0.09 1.34,-0.26 0.34,-0.16 0.5,-0.38 0.5,-0.67 0,-0.17 -0.08,-0.29 -0.24,-0.42 -0.17,-0.11 -0.55,-0.22 -1.1,-0.34l-0.59 -0.08c-1,-0.21 -1.75,-0.55 -2.18,-1.02 -0.46,-0.44 -0.68,-1.02 -0.68,-1.76 0,-1.01 0.37,-1.79 1.1,-2.37 0.77,-0.54 1.89,-0.83 3.36,-0.83 0.61,0 1.23,0.06 1.85,0.16 0.61,0.06 1.22,0.17 1.84,0.34zm0 0z"/>
  <path class="fil0" d="M121.46 178.1l1.02 -5.56 2.94 0 -0.93 4.8c-0.06,0.29 -0.12,0.55 -0.17,0.76 0,0.23 0,0.4 0,0.51 0,0.33 0.09,0.62 0.26,0.84 0.21,0.17 0.5,0.25 0.84,0.25 0.6,0 1.12,-0.21 1.59,-0.68 0.44,-0.5 0.76,-1.17 0.93,-2.01l0.84 -4.47 2.93 0 -1.76 9.19 -2.94 0 0.26 -1.35c-0.51,0.5 -1.06,0.91 -1.61,1.17 -0.56,0.29 -1.14,0.43 -1.75,0.43 -0.85,0 -1.5,-0.23 -1.94,-0.68 -0.46,-0.44 -0.67,-1.05 -0.67,-1.85 0,-0.22 0,-0.43 0,-0.6 0.04,-0.2 0.1,-0.45 0.16,-0.75zm0 0z"/>
  <path class="fil0" d="M139.03 174.39c-0.73,0 -1.34,0.38 -1.84,1.1 -0.47,0.68 -0.67,1.58 -0.67,2.69 0,0.51 0.09,0.91 0.33,1.19 0.28,0.29 0.67,0.41 1.18,0.41 0.71,0 1.3,-0.33 1.76,-1 0.5,-0.68 0.76,-1.54 0.76,-2.61 0,-0.56 -0.15,-0.98 -0.42,-1.28 -0.23,-0.32 -0.6,-0.5 -1.1,-0.5zm-3.1 5.99l-0.26 1.35 -2.94 0 2.53 -12.81 2.93 0 -1 4.97c0.44,-0.55 0.93,-0.95 1.43,-1.18 0.5,-0.27 1.02,-0.42 1.59,-0.42 1.05,0 1.88,0.33 2.44,1 0.61,0.64 0.93,1.52 0.93,2.7 0,0.68 -0.14,1.35 -0.34,2.02 -0.18,0.68 -0.47,1.31 -0.85,1.86 -0.5,0.67 -1.06,1.22 -1.67,1.6 -0.64,0.34 -1.31,0.51 -2.02,0.51 -0.63,0 -1.16,-0.13 -1.6,-0.34 -0.46,-0.27 -0.84,-0.7 -1.17,-1.26zm0 0z"/>
  <path class="fil0" d="M149.36 179.78c0.78,0 1.39,-0.33 1.84,-1 0.52,-0.68 0.76,-1.56 0.76,-2.7 0,-0.51 -0.15,-0.89 -0.41,-1.19 -0.3,-0.32 -0.65,-0.5 -1.1,-0.5 -0.74,0 -1.35,0.38 -1.85,1.1 -0.5,0.68 -0.76,1.56 -0.76,2.61 0,0.57 0.14,0.99 0.43,1.27 0.27,0.29 0.62,0.41 1.09,0.41zm3.11 -5.89l1.01 -4.97 2.94 0 -2.53 12.81 -2.93 0 0.24 -1.35c-0.45,0.56 -0.91,0.99 -1.43,1.26 -0.45,0.21 -0.97,0.34 -1.58,0.34 -1.02,0 -1.84,-0.34 -2.45,-1.01 -0.62,-0.67 -0.91,-1.57 -0.91,-2.7 0,-0.67 0.09,-1.35 0.33,-2.02 0.2,-0.68 0.52,-1.29 0.92,-1.86 0.5,-0.67 1.05,-1.18 1.68,-1.51 0.61,-0.38 1.28,-0.59 2.01,-0.59 0.61,0 1.14,0.15 1.6,0.42 0.44,0.23 0.8,0.63 1.1,1.18zm0 0z"/>
  <path class="fil0" d="M158.51 172.54l3.02 0 -1.85 9.19 -2.94 0 1.77 -9.19zm0.75 -3.62l2.94 0 -0.5 2.44 -2.94 0 0.5 -2.44zm0 0z"/>
  <path class="fil0" d="M163.08 172.54l2.69 0 1.17 6.4 3.45 -6.4 3.03 0 -5.46 9.19 -3.12 0 -1.76 -9.19zm0 0z"/>
  <path class="fil0" d="M175.19 172.54l3.02 0 -1.85 9.19 -2.94 0 1.77 -9.19zm0.76 -3.62l2.93 0 -0.5 2.44 -2.95 0 0.52 -2.44zm0 0z"/>
  <path class="fil0" d="M188.08 172.79l-0.43 2.28c-0.56,-0.27 -1.14,-0.47 -1.76,-0.59 -0.57,-0.17 -1.1,-0.26 -1.6,-0.26 -0.56,0 -1,0.09 -1.34,0.26 -0.29,0.17 -0.42,0.4 -0.42,0.67 0,0.17 0.09,0.32 0.25,0.42 0.17,0.07 0.51,0.15 1.01,0.25l0.5 0.09c1.23,0.29 2.07,0.63 2.53,1.01 0.5,0.41 0.75,0.93 0.75,1.6 0,1.08 -0.42,1.92 -1.26,2.53 -0.84,0.63 -2.02,0.93 -3.53,0.93 -0.62,0 -1.26,-0.07 -1.93,-0.17 -0.67,-0.11 -1.35,-0.26 -2.02,-0.43l0.43 -2.36c0.54,0.35 1.11,0.6 1.67,0.76 0.61,0.17 1.26,0.26 1.93,0.26 0.61,0 1.05,-0.09 1.35,-0.26 0.34,-0.16 0.51,-0.38 0.51,-0.67 0,-0.17 -0.08,-0.29 -0.26,-0.42 -0.17,-0.11 -0.55,-0.22 -1.08,-0.34l-0.6 -0.08c-1,-0.21 -1.74,-0.55 -2.18,-1.02 -0.46,-0.44 -0.67,-1.02 -0.67,-1.76 0,-1.01 0.36,-1.79 1.09,-2.37 0.78,-0.54 1.89,-0.83 3.36,-0.83 0.61,0 1.22,0.06 1.84,0.16 0.62,0.06 1.23,0.17 1.86,0.34zm0 0z"/>
  <path class="fil0" d="M190.92 172.54l3.03 0 -1.86 9.19 -2.93 0 1.76 -9.19zm0.75 -3.62l2.95 0 -0.51 2.44 -2.94 0 0.5 -2.44zm0 0z"/>
  <path class="fil0" d="M200.7 174.39c-0.8,0 -1.42,0.38 -1.94,1.1 -0.45,0.68 -0.67,1.56 -0.67,2.61 0,0.57 0.11,1.01 0.34,1.35 0.27,0.3 0.67,0.42 1.18,0.42 0.78,0 1.42,-0.33 1.93,-1.02 0.51,-0.7 0.75,-1.61 0.75,-2.68 0,-0.56 -0.14,-0.98 -0.41,-1.28 -0.3,-0.32 -0.67,-0.5 -1.18,-0.5zm0.25 -2.1c1.34,0 2.39,0.38 3.2,1.09 0.77,0.67 1.17,1.6 1.17,2.79 0,0.73 -0.14,1.43 -0.42,2.1 -0.22,0.63 -0.57,1.22 -1.01,1.77 -0.57,0.63 -1.24,1.1 -2.01,1.43 -0.74,0.34 -1.58,0.51 -2.53,0.51 -1.35,0 -2.41,-0.34 -3.19,-1.01 -0.8,-0.72 -1.17,-1.69 -1.17,-2.87 0,-0.71 0.09,-1.38 0.33,-2.02 0.28,-0.67 0.67,-1.28 1.18,-1.86 0.5,-0.61 1.11,-1.1 1.85,-1.43 0.78,-0.34 1.63,-0.5 2.6,-0.5zm0 0z"/>
  <path class="fil0" d="M216.76 176.08l-1.1 5.65 -2.93 0 0.91 -4.81c0.05,-0.34 0.09,-0.58 0.09,-0.75 0.05,-0.21 0.09,-0.43 0.09,-0.6 0,-0.33 -0.09,-0.59 -0.26,-0.76 -0.16,-0.21 -0.45,-0.33 -0.83,-0.33 -0.64,0 -1.16,0.26 -1.6,0.76 -0.41,0.46 -0.67,1.1 -0.85,1.94l-0.91 4.55 -2.95 0 1.76 -9.19 3.03 0 -0.34 1.35c0.55,-0.55 1.11,-0.95 1.69,-1.18 0.55,-0.27 1.11,-0.42 1.67,-0.42 0.84,0 1.48,0.22 1.94,0.67 0.51,0.47 0.76,1.08 0.76,1.85 0,0.17 -0.05,0.38 -0.08,0.6 0,0.23 -0.05,0.46 -0.09,0.67zm0 0z"/>
  <path class="fil0" d="M227.85 174.39c-0.81,0 -1.43,0.38 -1.93,1.1 -0.46,0.68 -0.67,1.56 -0.67,2.61 0,0.57 0.1,1.01 0.33,1.35 0.27,0.3 0.67,0.42 1.17,0.42 0.78,0 1.43,-0.33 1.94,-1.02 0.5,-0.7 0.75,-1.61 0.75,-2.68 0,-0.56 -0.15,-0.98 -0.42,-1.28 -0.29,-0.32 -0.67,-0.5 -1.17,-0.5zm0.25 -2.1c1.34,0 2.39,0.38 3.2,1.09 0.77,0.67 1.17,1.6 1.17,2.79 0,0.73 -0.15,1.43 -0.42,2.1 -0.23,0.63 -0.57,1.22 -1.01,1.77 -0.56,0.63 -1.23,1.1 -2.02,1.43 -0.73,0.34 -1.57,0.51 -2.51,0.51 -1.35,0 -2.42,-0.34 -3.2,-1.01 -0.8,-0.72 -1.18,-1.69 -1.18,-2.87 0,-0.71 0.11,-1.38 0.34,-2.02 0.27,-0.67 0.68,-1.28 1.18,-1.86 0.5,-0.61 1.11,-1.1 1.84,-1.43 0.78,-0.34 1.64,-0.5 2.61,-0.5zm0 0z"/>
  <path class="fil0" d="M242.15 168.92l-0.43 1.93 -1.59 0c-0.4,0 -0.72,0.09 -0.93,0.26 -0.17,0.12 -0.29,0.38 -0.34,0.75l-0.16 0.68 2.52 0 -0.42 2.11 -2.53 0 -1.34 7.08 -2.94 0 1.34 -7.08 -1.42 0 0.42 -2.11 1.43 0 0.17 -0.68c0.16,-1.01 0.54,-1.72 1.17,-2.18 0.67,-0.52 1.6,-0.76 2.77,-0.76l2.28 0zm0 0z"/>
  <path class="fil0" d="M257.37 169.85l-0.5 2.6c-0.62,-0.33 -1.23,-0.55 -1.84,-0.67 -0.64,-0.17 -1.23,-0.26 -1.78,-0.26 -0.79,0 -1.4,0.16 -1.84,0.43 -0.46,0.23 -0.67,0.55 -0.67,0.93 0,0.29 0.08,0.5 0.25,0.67 0.21,0.17 0.63,0.34 1.26,0.5l1.35 0.26c1.05,0.29 1.84,0.72 2.34,1.26 0.52,0.51 0.76,1.16 0.76,1.94 0,1.34 -0.5,2.44 -1.5,3.29 -1.02,0.8 -2.36,1.18 -4.05,1.18 -0.83,0 -1.65,-0.08 -2.43,-0.25 -0.79,-0.11 -1.55,-0.35 -2.27,-0.68l0.51 -2.61c0.71,0.4 1.42,0.72 2.09,0.93 0.69,0.23 1.36,0.33 2.03,0.33 0.71,0 1.29,-0.13 1.76,-0.42 0.44,-0.34 0.67,-0.72 0.67,-1.18 0,-0.33 -0.12,-0.54 -0.33,-0.68 -0.17,-0.17 -0.6,-0.35 -1.27,-0.58l-1.26 -0.26c-0.96,-0.27 -1.67,-0.67 -2.18,-1.17 -0.46,-0.52 -0.68,-1.14 -0.68,-1.95 0,-1.28 0.47,-2.29 1.43,-3.03 1.02,-0.78 2.31,-1.18 3.96,-1.18 0.67,0 1.35,0.06 2.02,0.17 0.71,0.06 1.44,0.21 2.17,0.43zm0 0z"/>
  <path class="fil0" d="M264.33 169.92l-0.51 2.62 3.04 0 -0.43 2.11 -3.02 0 -0.76 3.87c0,0.06 -0.05,0.15 -0.08,0.26 0,0.06 0,0.12 0,0.16 0,0.23 0.08,0.4 0.24,0.51 0.17,0.12 0.45,0.17 0.84,0.17l1.52 0 -0.42 2.11 -2.44 0c-0.9,0 -1.58,-0.18 -2.02,-0.51 -0.46,-0.37 -0.67,-0.95 -0.67,-1.68 0,-0.17 0,-0.34 0,-0.52 0,-0.17 0.03,-0.33 0.09,-0.5l0.75 -3.87 -1.43 0 0.33 -2.11 1.52 0 0.51 -2.62 2.94 0zm0 0z"/>
  <path class="fil0" d="M271.84 177.6c-0.73,0 -1.31,0.12 -1.67,0.34 -0.41,0.23 -0.6,0.56 -0.6,1 0,0.34 0.11,0.63 0.34,0.84 0.21,0.17 0.53,0.26 0.93,0.26 0.6,0 1.11,-0.17 1.5,-0.5 0.38,-0.38 0.67,-0.93 0.84,-1.6l0.09 -0.34 -1.43 0zm4.55 -1.1l-1.02 5.23 -2.94 0 0.25 -1.35c-0.46,0.56 -0.96,0.99 -1.51,1.26 -0.56,0.21 -1.16,0.34 -1.76,0.34 -0.84,0 -1.56,-0.23 -2.1,-0.68 -0.52,-0.44 -0.76,-1.05 -0.76,-1.85 0,-1.18 0.44,-2.06 1.34,-2.7 0.95,-0.61 2.28,-0.93 3.95,-0.93l1.77 0 0 -0.25c0.04,-0.04 0.08,-0.08 0.08,-0.08 0,-0.05 0,-0.11 0,-0.17 0,-0.34 -0.21,-0.58 -0.59,-0.75 -0.33,-0.22 -0.84,-0.35 -1.52,-0.35 -0.56,0 -1.14,0.09 -1.76,0.26 -0.56,0.12 -1.08,0.29 -1.6,0.5l0.43 -2.19c0.61,-0.17 1.21,-0.28 1.85,-0.34 0.67,-0.1 1.34,-0.16 2.01,-0.16 1.4,0 2.4,0.25 3.03,0.76 0.67,0.46 1,1.15 1,2.1 0,0.17 -0.03,0.38 -0.08,0.59 0,0.23 -0.04,0.49 -0.07,0.76zm0 0z"/>
  <path class="fil0" d="M288.46 176.08l-1.1 5.65 -2.95 0 0.93 -4.81c0.04,-0.34 0.09,-0.58 0.09,-0.75 0.04,-0.21 0.08,-0.43 0.08,-0.6 0,-0.33 -0.08,-0.59 -0.25,-0.76 -0.17,-0.21 -0.47,-0.33 -0.85,-0.33 -0.62,0 -1.14,0.26 -1.58,0.76 -0.41,0.46 -0.68,1.1 -0.85,1.94l-0.93 4.55 -2.93 0 1.76 -9.19 3.03 0 -0.34 1.35c0.55,-0.55 1.11,-0.95 1.69,-1.18 0.53,-0.27 1.11,-0.42 1.67,-0.42 0.84,0 1.48,0.22 1.93,0.67 0.51,0.47 0.76,1.08 0.76,1.85 0,0.17 -0.04,0.38 -0.09,0.6 0,0.23 -0.03,0.46 -0.07,0.67zm0 0z"/>
  <path class="fil0" d="M298.63 168.92l-0.42 1.93 -1.6 0c-0.4,0 -0.71,0.09 -0.93,0.26 -0.16,0.12 -0.29,0.38 -0.33,0.75l-0.17 0.68 2.52 0 -0.42 2.11 -2.52 0 -1.34 7.08 -2.94 0 1.34 -7.08 -1.43 0 0.42 -2.11 1.43 0 0.17 -0.68c0.17,-1.01 0.55,-1.72 1.17,-2.18 0.67,-0.52 1.6,-0.76 2.77,-0.76l2.28 0zm0 0z"/>
  <path class="fil0" d="M303.15 174.39c-0.8,0 -1.43,0.38 -1.93,1.1 -0.47,0.68 -0.68,1.56 -0.68,2.61 0,0.57 0.11,1.01 0.35,1.35 0.27,0.3 0.67,0.42 1.17,0.42 0.77,0 1.43,-0.33 1.93,-1.02 0.5,-0.7 0.76,-1.61 0.76,-2.68 0,-0.56 -0.15,-0.98 -0.42,-1.28 -0.3,-0.32 -0.67,-0.5 -1.18,-0.5zm0.25 -2.1c1.35,0 2.4,0.38 3.19,1.09 0.78,0.67 1.19,1.6 1.19,2.79 0,0.73 -0.16,1.43 -0.43,2.1 -0.23,0.63 -0.56,1.22 -1,1.77 -0.58,0.63 -1.25,1.1 -2.02,1.43 -0.74,0.34 -1.57,0.51 -2.53,0.51 -1.34,0 -2.42,-0.34 -3.19,-1.01 -0.8,-0.72 -1.17,-1.69 -1.17,-2.87 0,-0.71 0.1,-1.38 0.33,-2.02 0.27,-0.67 0.67,-1.28 1.17,-1.86 0.52,-0.61 1.11,-1.1 1.86,-1.43 0.77,-0.34 1.64,-0.5 2.6,-0.5zm0 0z"/>
  <path class="fil0" d="M317.03 174.98c-0.23,-0.1 -0.49,-0.18 -0.76,-0.24 -0.23,-0.05 -0.49,-0.09 -0.76,-0.09 -0.73,0 -1.34,0.24 -1.84,0.76 -0.52,0.46 -0.84,1.16 -1.02,2.1l-0.84 4.22 -2.93 0 1.76 -9.19 3.03 0 -0.34 1.51c0.37,-0.54 0.86,-0.96 1.43,-1.26 0.61,-0.34 1.25,-0.5 1.93,-0.5 0.11,0 0.2,0 0.34,0 0.16,0 0.33,0.04 0.5,0.07l-0.5 2.62zm0 0z"/>
  <path class="fil0" d="M321.77 179.78c0.77,0 1.38,-0.33 1.84,-1 0.51,-0.68 0.76,-1.56 0.76,-2.7 0,-0.51 -0.14,-0.89 -0.43,-1.19 -0.29,-0.32 -0.64,-0.5 -1.08,-0.5 -0.74,0 -1.35,0.38 -1.85,1.1 -0.51,0.68 -0.76,1.56 -0.76,2.61 0,0.57 0.13,0.99 0.42,1.27 0.28,0.29 0.64,0.41 1.1,0.41zm3.1 -5.89l1.02 -4.97 2.93 0 -2.52 12.81 -2.94 0 0.25 -1.35c-0.46,0.56 -0.92,0.99 -1.42,1.26 -0.47,0.21 -0.99,0.34 -1.61,0.34 -1,0 -1.82,-0.34 -2.43,-1.01 -0.63,-0.67 -0.93,-1.57 -0.93,-2.7 0,-0.67 0.11,-1.35 0.35,-2.02 0.2,-0.68 0.52,-1.29 0.91,-1.86 0.52,-0.67 1.05,-1.18 1.69,-1.51 0.61,-0.38 1.28,-0.59 2.02,-0.59 0.61,0 1.13,0.15 1.6,0.42 0.44,0.23 0.79,0.63 1.08,1.18zm0 0z"/>
  <path class="fil0" d="M337.25 169.42l3.12 0 -1.43 7.42c-0.06,0.23 -0.12,0.46 -0.17,0.67 0,0.17 0,0.34 0,0.5 0,0.57 0.12,1 0.41,1.27 0.34,0.23 0.78,0.34 1.36,0.34 0.71,0 1.27,-0.19 1.67,-0.6 0.44,-0.44 0.79,-1.17 1.02,-2.18l1.43 -7.42 3.1 0 -1.43 7.42c-0.33,1.81 -1,3.11 -2.02,3.96 -1.01,0.8 -2.43,1.18 -4.28,1.18 -1.41,0 -2.5,-0.3 -3.28,-0.93 -0.73,-0.61 -1.09,-1.51 -1.09,-2.7 0,-0.2 0,-0.44 0,-0.67 0.04,-0.28 0.1,-0.55 0.16,-0.84l1.43 -7.42zm0 0z"/>
  <path class="fil0" d="M358.94 176.08l-1.09 5.65 -2.94 0 0.92 -4.81c0.04,-0.34 0.08,-0.58 0.08,-0.75 0.05,-0.21 0.09,-0.43 0.09,-0.6 0,-0.33 -0.09,-0.59 -0.25,-0.76 -0.17,-0.21 -0.46,-0.33 -0.84,-0.33 -0.64,0 -1.16,0.26 -1.6,0.76 -0.4,0.46 -0.67,1.1 -0.84,1.94l-0.92 4.55 -2.95 0 1.76 -9.19 3.03 0 -0.33 1.35c0.54,-0.55 1.12,-0.95 1.68,-1.18 0.55,-0.27 1.11,-0.42 1.68,-0.42 0.83,0 1.47,0.22 1.93,0.67 0.51,0.47 0.76,1.08 0.76,1.85 0,0.17 -0.05,0.38 -0.08,0.6 0,0.23 -0.05,0.46 -0.09,0.67zm0 0z"/>
  <path class="fil0" d="M362.3 172.54l3.03 0 -1.84 9.19 -2.95 0 1.76 -9.19zm0.76 -3.62l2.94 0 -0.5 2.44 -2.94 0 0.5 -2.44zm0 0z"/>
  <path class="fil0" d="M366.88 172.54l2.69 0 1.18 6.4 3.44 -6.4 3.03 0 -5.46 9.19 -3.12 0 -1.76 -9.19zm0 0z"/>
  <path class="fil0" d="M387.3 177.42l-0.07 0.52 -6.89 0c0,0.06 0,0.12 0,0.16 0,0.07 0,0.08 0,0.08 0,0.64 0.16,1.1 0.5,1.44 0.33,0.3 0.85,0.42 1.6,0.42 0.6,0 1.26,-0.09 1.93,-0.26 0.71,-0.21 1.44,-0.52 2.19,-0.93l-0.43 2.37c-0.73,0.24 -1.47,0.4 -2.19,0.51 -0.67,0.17 -1.38,0.25 -2.1,0.25 -1.47,0 -2.58,-0.34 -3.36,-1.01 -0.79,-0.67 -1.17,-1.6 -1.17,-2.79 0,-0.71 0.11,-1.39 0.33,-2.01 0.28,-0.68 0.67,-1.29 1.18,-1.86 0.54,-0.67 1.21,-1.19 2.02,-1.52 0.77,-0.34 1.64,-0.5 2.6,-0.5 1.22,0 2.21,0.33 2.95,1 0.71,0.68 1.08,1.59 1.08,2.7 0,0.24 -0.03,0.47 -0.08,0.68 0,0.23 -0.04,0.49 -0.09,0.75zm-2.77 -1.34c0,-0.05 0,-0.11 0,-0.17 0,-0.11 0,-0.19 0,-0.26 0,-0.44 -0.15,-0.77 -0.42,-1 -0.23,-0.28 -0.56,-0.43 -1,-0.43 -0.57,0 -1.07,0.17 -1.51,0.52 -0.41,0.29 -0.68,0.73 -0.85,1.34l3.78 0zm0 0z"/>
  <path class="fil0" d="M396.75 174.98c-0.23,-0.1 -0.49,-0.18 -0.76,-0.24 -0.23,-0.05 -0.48,-0.09 -0.76,-0.09 -0.73,0 -1.34,0.24 -1.84,0.76 -0.5,0.46 -0.85,1.16 -1.02,2.1l-0.83 4.22 -2.94 0 1.76 -9.19 3.03 0 -0.34 1.51c0.37,-0.54 0.86,-0.96 1.43,-1.26 0.61,-0.34 1.27,-0.5 1.94,-0.5 0.1,0 0.21,0 0.33,0 0.17,0 0.34,0.04 0.5,0.07l-0.5 2.62zm0 0z"/>
  <path class="fil0" d="M405.78 172.79l-0.43 2.28c-0.56,-0.27 -1.15,-0.47 -1.76,-0.59 -0.56,-0.17 -1.09,-0.26 -1.6,-0.26 -0.56,0 -1,0.09 -1.34,0.26 -0.3,0.17 -0.42,0.4 -0.42,0.67 0,0.17 0.09,0.32 0.25,0.42 0.17,0.07 0.51,0.15 1.01,0.25l0.5 0.09c1.22,0.29 2.07,0.63 2.53,1.01 0.5,0.41 0.76,0.93 0.76,1.6 0,1.08 -0.43,1.92 -1.27,2.53 -0.83,0.63 -2.02,0.93 -3.53,0.93 -0.63,0 -1.26,-0.07 -1.94,-0.17 -0.67,-0.11 -1.34,-0.26 -2.01,-0.43l0.43 -2.36c0.53,0.35 1.11,0.6 1.67,0.76 0.61,0.17 1.26,0.26 1.93,0.26 0.61,0 1.05,-0.09 1.34,-0.26 0.35,-0.16 0.52,-0.38 0.52,-0.67 0,-0.17 -0.09,-0.29 -0.26,-0.42 -0.17,-0.11 -0.55,-0.22 -1.09,-0.34l-0.59 -0.08c-1.01,-0.21 -1.74,-0.55 -2.18,-1.02 -0.46,-0.44 -0.67,-1.02 -0.67,-1.76 0,-1.01 0.35,-1.79 1.09,-2.37 0.78,-0.54 1.89,-0.83 3.36,-0.83 0.61,0 1.22,0.06 1.84,0.16 0.61,0.06 1.22,0.17 1.86,0.34zm0 0z"/>
  <path class="fil0" d="M408.61 172.54l3.03 0 -1.85 9.19 -2.94 0 1.76 -9.19zm0.76 -3.62l2.95 0 -0.52 2.44 -2.93 0 0.5 -2.44zm0 0z"/>
  <path class="fil0" d="M418.14 169.92l-0.5 2.62 3.02 0 -0.41 2.11 -3.03 0 -0.76 3.87c0,0.06 -0.04,0.15 -0.08,0.26 0,0.06 0,0.12 0,0.16 0,0.23 0.08,0.4 0.25,0.51 0.17,0.12 0.44,0.17 0.84,0.17l1.52 0 -0.43 2.11 -2.43 0c-0.91,0 -1.58,-0.18 -2.02,-0.51 -0.46,-0.37 -0.67,-0.95 -0.67,-1.68 0,-0.17 0,-0.34 0,-0.52 0,-0.17 0.02,-0.33 0.09,-0.5l0.75 -3.87 -1.43 0 0.33 -2.11 1.52 0 0.5 -2.62 2.94 0zm0 0z"/>
  <path class="fil0" d="M421.2 172.54l2.77 0 1.26 6.31 3.29 -6.31 3.1 0 -5.79 10.03c-0.64,1.17 -1.22,1.94 -1.77,2.27 -0.56,0.34 -1.31,0.5 -2.19,0.5l-1.76 0 0.33 -1.93 0.93 0c0.44,0 0.79,-0.08 1.09,-0.26 0.28,-0.17 0.51,-0.46 0.67,-0.84l0.34 -0.5 -2.27 -9.27zm0 0z"/>
 </g>
</svg>
